<svg width="926" height="753" viewBox="0 0 926 753" fill="none" xmlns="http://www.w3.org/2000/svg">
<g id="home-img">
<g id="head">
<path id="Vector" d="M480.925 309.117C490.162 297.214 483.952 282.289 467.055 275.782C450.158 269.275 428.972 273.65 419.735 285.553C410.498 297.457 416.708 312.381 433.605 318.888C450.502 325.395 471.688 321.021 480.925 309.117Z" fill="#FFB8B8"/>
<path id="Vector_2" d="M447.725 319.003C456.256 320.446 465.243 319.604 472.942 316.64C480.641 313.677 486.501 308.803 489.385 302.966C492.269 297.13 491.971 290.746 488.549 285.055C485.126 279.365 478.824 274.773 470.865 272.173C464.737 270.246 458.034 269.398 451.337 269.704C440.909 270.09 430.773 272.805 420.335 272.605L418.822 274.319L413.12 273.344L411.898 276.534L410.396 276.497C407.705 280.019 412.034 285.062 417.711 285.019C419.959 285.002 422.085 284.342 424.283 284.011C426.481 283.679 429.069 283.761 430.585 284.931C432.554 286.451 431.697 288.822 431.286 290.86C430.876 292.897 431.901 295.642 434.821 295.708C436.313 295.742 437.731 294.989 439.197 295.187C440.904 295.418 441.767 296.87 441.517 298.082C441.095 299.271 440.405 300.404 439.475 301.44C435.243 307.392 438.817 315.489 447.094 318.7" fill="#2F2E41"/>
</g>
<g id="product1">
<path id="Vector_3" d="M414.267 17.2077H3.17554V251.882H414.267V17.2077Z" fill="#F2F2F2"/>
<path id="Vector_4" d="M402.512 46.6417H14.9305V237.998H402.512V46.6417Z" fill="white"/>
<path id="Vector_5" d="M414.091 17H3V32.567H414.091V17Z" fill="#FF0066"/>
<path id="Vector_6" d="M15.9783 27.8439C17.766 27.8439 19.2153 26.5521 19.2153 24.9587C19.2153 23.3652 17.766 22.0734 15.9783 22.0734C14.1906 22.0734 12.7414 23.3652 12.7414 24.9587C12.7414 26.5521 14.1906 27.8439 15.9783 27.8439Z" fill="white"/>
<path id="Vector_7" d="M28.265 27.8439C30.0527 27.8439 31.5019 26.5521 31.5019 24.9587C31.5019 23.3652 30.0527 22.0734 28.265 22.0734C26.4772 22.0734 25.028 23.3652 25.028 24.9587C25.028 26.5521 26.4772 27.8439 28.265 27.8439Z" fill="white"/>
<path id="Vector_8" d="M40.5515 27.8439C42.3393 27.8439 43.7885 26.5521 43.7885 24.9587C43.7885 23.3652 42.3393 22.0734 40.5515 22.0734C38.7638 22.0734 37.3146 23.3652 37.3146 24.9587C37.3146 26.5521 38.7638 27.8439 40.5515 27.8439Z" fill="white"/>
<path id="Vector_9" d="M149.738 66.4965H50.1476V218.144H149.738V66.4965Z" fill="#F2F2F2"/>
<path id="Vector_10" d="M249.921 66.4965H166.929V108.239H249.921V66.4965Z" fill="#FF0066"/>
<path id="Vector_11" d="M249.921 119.864H166.929V164.776H249.921V119.864Z" fill="#F2F2F2"/>
<path id="Vector_12" d="M249.921 176.401H166.929V218.144H249.921V176.401Z" fill="#F2F2F2"/>
<path id="Vector_13" d="M367.295 66.4965H267.704V132.583H367.295V66.4965Z" fill="#F2F2F2"/>
<path id="Vector_14" d="M367.295 152.057H267.704V218.144H367.295V152.057Z" fill="#F2F2F2"/>
</g>
<g id="product2">
<path id="Vector_15" d="M913.267 16.2077H502.176V250.882H913.267V16.2077Z" fill="#F2F2F2"/>
<path id="Vector_16" d="M901.512 45.6417H513.931V236.998H901.512V45.6417Z" fill="white"/>
<path id="Vector_17" d="M913.091 16H502V31.567H913.091V16Z" fill="#FF0066"/>
<path id="Vector_18" d="M514.237 26.7705C516.025 26.7705 517.474 25.4787 517.474 23.8852C517.474 22.2918 516.025 21 514.237 21C512.449 21 511 22.2918 511 23.8852C511 25.4787 512.449 26.7705 514.237 26.7705Z" fill="white"/>
<path id="Vector_19" d="M527.265 26.8439C529.053 26.8439 530.502 25.5522 530.502 23.9587C530.502 22.3652 529.053 21.0735 527.265 21.0735C525.477 21.0735 524.028 22.3652 524.028 23.9587C524.028 25.5522 525.477 26.8439 527.265 26.8439Z" fill="white"/>
<path id="Vector_20" d="M539.552 26.8439C541.339 26.8439 542.788 25.5522 542.788 23.9587C542.788 22.3652 541.339 21.0735 539.552 21.0735C537.764 21.0735 536.315 22.3652 536.315 23.9587C536.315 25.5522 537.764 26.8439 539.552 26.8439Z" fill="white"/>
<path id="Vector_21" d="M866.204 65.4965H766.614V217.144H866.204V65.4965Z" fill="#F2F2F2"/>
<path id="Vector_22" d="M750.114 65.4939H549.237V107.236H750.114V65.4939Z" fill="#FF0066"/>
<path id="Vector_23" d="M750.114 118.861H549.237V163.774H750.114V118.861Z" fill="#F2F2F2"/>
<path id="Vector_24" d="M750.114 175.398H549.237V217.141H750.114V175.398Z" fill="#F2F2F2"/>
</g>
<g id="man">
<path id="Vector_25" d="M465.734 334.804L463.998 328.688C463.998 328.688 438.458 322.572 435.6 334.804H465.734Z" fill="#E6E6E6"/>
<path id="Vector_26" d="M416.719 671.566L399.975 671.566L392.01 626.07L416.721 626.07L416.719 671.566Z" fill="#FFB8B8"/>
<path id="Vector_27" d="M420.988 683L367 682.999V682.518C367 678.592 369.214 674.826 373.155 672.05C377.096 669.274 382.441 667.715 388.014 667.714H388.015L420.989 667.715L420.988 683Z" fill="#2F2E41"/>
<path id="Vector_28" d="M474.281 671.566L491.025 671.566L498.99 626.07L474.279 626.07L474.281 671.566Z" fill="#FFB8B8"/>
<path id="Vector_29" d="M470.011 667.715L502.985 667.714H502.986C508.559 667.715 513.904 669.274 517.845 672.05C521.786 674.826 524 678.592 524 682.518V682.999L470.012 683L470.011 667.715Z" fill="#2F2E41"/>
<path id="Vector_30" d="M490.044 360.492L509.143 359.269L521.298 399.635L519.561 436.332L500.462 485.261L474.416 474.251L488.307 424.099L490.044 360.492Z" fill="#CCCCCC"/>
<path id="Vector_31" d="M502.133 480.979L497.857 506.666L503.067 566.604V655.923L470.075 654.676L463.13 561.711L444.029 518.899L430.138 567.828L421.457 659.569L387.597 657.657V567.505L386.728 501.774L398.883 476.086L502.133 480.979Z" fill="#2F2E41"/>
<path id="Vector_32" d="M431.006 336.028C431.006 336.028 443.161 323.795 465.734 332.358L476.152 342.144L509.143 359.269L502.198 416.76L510.88 488.93L387.597 487.707L408.434 415.537V338.474L431.006 336.028Z" fill="#CCCCCC"/>
<path id="Vector_33" opacity="0.25" d="M497.857 379.572L507.813 463.432L495.252 417.983L497.857 379.572Z" fill="black"/>
<path id="Vector_34" d="M407.295 504.525C408.497 503.513 409.369 502.329 409.851 501.054C410.332 499.78 410.411 498.446 410.082 497.148C409.753 495.849 409.024 494.618 407.946 493.539C406.868 492.461 405.468 491.562 403.843 490.906L407.555 470.457L390.465 465.837L385.799 494.767C384.415 496.763 384.119 499.046 384.966 501.185C385.814 503.324 387.745 505.169 390.395 506.372C393.044 507.575 396.228 508.051 399.343 507.711C402.458 507.37 405.287 506.236 407.295 504.525Z" fill="#FFB8B8"/>
<path id="Vector_35" d="M385.861 484.037H413.643V475.474H385.861V484.037Z" fill="#E6E6E6"/>
<path id="Vector_36" d="M426.666 348.871L408.434 338.474C408.434 338.474 395.411 337.862 393.674 351.318C391.938 364.773 389.826 422.264 389.826 422.264L383.256 479.756L419.72 480.979L426.666 418.754V348.871Z" fill="#CCCCCC"/>
</g>
</g>
</svg>